<svg width="27" height="26" viewBox="0 0 27 26" fill="none" xmlns="http://www.w3.org/2000/svg">
<path fill-rule="evenodd" clip-rule="evenodd" d="M5.68473 4.44141C4.96959 4.44141 4.28374 4.7255 3.77805 5.23118C3.27237 5.73686 2.98828 6.42272 2.98828 7.13786L2.98828 9.4826C2.98828 9.67685 3.14575 9.83431 3.33999 9.83431C4.17951 9.83431 4.98464 10.1678 5.57827 10.7614C6.1719 11.3551 6.50539 12.1602 6.50539 12.9997C6.50539 13.8392 6.1719 14.6444 5.57827 15.238C4.98464 15.8316 4.17951 16.1651 3.33999 16.1651C3.14575 16.1651 2.98828 16.3226 2.98828 16.5168L2.98828 18.8616C2.98828 20.3454 4.20088 21.558 5.68473 21.558L22.0979 21.558C22.8131 21.558 23.4989 21.2739 24.0046 20.7682C24.5103 20.2626 24.7944 19.5767 24.7944 18.8616V16.5168C24.7944 16.3226 24.6369 16.1651 24.4427 16.1651C23.6032 16.1651 22.798 15.8316 22.2044 15.238C21.6108 14.6444 21.2773 13.8392 21.2773 12.9997C21.2773 12.1602 21.6108 11.3551 22.2044 10.7614C22.798 10.1678 23.6032 9.83431 24.4427 9.83431C24.6369 9.83431 24.7944 9.67685 24.7944 9.4826V7.13786C24.7944 6.42272 24.5103 5.73686 24.0046 5.23118C23.4989 4.7255 22.8131 4.44141 22.0979 4.44141L5.68473 4.44141ZM14.8711 8.12776C14.8711 8.79548 15.4124 9.33677 16.0801 9.33677C16.7478 9.33677 17.2891 8.79548 17.2891 8.12776V7.29578C17.2891 6.62806 16.7478 6.08677 16.0801 6.08677C15.4124 6.08677 14.8711 6.62806 14.8711 7.29578V8.12776ZM16.0395 14.6244C15.3718 14.6244 14.8305 14.0831 14.8305 13.4154V12.5834C14.8305 11.9157 15.3718 11.3744 16.0395 11.3744C16.7072 11.3744 17.2485 11.9157 17.2485 12.5834V13.4154C17.2485 14.0831 16.7072 14.6244 16.0395 14.6244ZM14.8711 18.7036C14.8711 19.3713 15.4124 19.9126 16.0801 19.9126C16.7478 19.9126 17.2891 19.3713 17.2891 18.7036V17.8716C17.2891 17.2039 16.7478 16.6626 16.0801 16.6626C15.4124 16.6626 14.8711 17.2039 14.8711 17.8716V18.7036Z" fill="#6ABF40"/>
</svg>
