<svg width="25" height="22" viewBox="0 0 25 22" fill="none" xmlns="http://www.w3.org/2000/svg">
<path d="M0.377587 10.0026C2.93515 8.59381 5.79009 7.41803 8.4576 6.23624C13.0468 4.30055 17.6542 2.39841 22.3081 0.627545C23.2135 0.325806 24.8405 0.0307217 25 1.37259C24.9127 3.272 24.5533 5.16028 24.3068 7.04856C23.6812 11.2011 22.9581 15.3394 22.253 19.4782C22.0101 20.8568 20.283 21.5705 19.178 20.6883C16.5223 18.8944 13.8462 17.1181 11.2245 15.2827C10.3657 14.41 11.162 13.1568 11.9291 12.5336C14.1163 10.3781 16.436 8.54668 18.509 6.27972C19.0681 4.92937 17.416 6.06741 16.871 6.4161C13.8766 8.47959 10.9555 10.6691 7.79843 12.4826C6.18581 13.3703 4.30628 12.6117 2.69439 12.1163C1.24913 11.5179 -0.868713 10.9151 0.377441 10.0027L0.377587 10.0026Z" fill="white"/>
</svg>
