<svg width="23" height="22" viewBox="0 0 23 22" fill="none" xmlns="http://www.w3.org/2000/svg">
<path fill-rule="evenodd" clip-rule="evenodd" d="M2.36997 4.89955H5.95063C5.87681 4.74818 5.81484 4.58043 5.76446 4.39662C5.70146 4.16677 5.66971 3.94174 5.66971 3.72173C5.66971 2.92698 5.947 2.25182 6.50073 1.70073C7.05416 1.14992 7.72494 0.873779 8.50895 0.873779C9.00891 0.873779 9.4742 1.00266 9.90342 1.26002C10.3297 1.51559 10.6793 1.83801 10.9508 2.22654L11.4827 2.99785L12.0147 2.22644C12.2934 1.82377 12.6409 1.49778 13.0569 1.24907C13.4753 0.998966 13.93 0.873779 14.4196 0.873779C15.221 0.873779 15.9003 1.14819 16.4529 1.69675C17.0057 2.24557 17.2822 2.92554 17.2822 3.73176C17.2822 3.93968 17.2544 4.14882 17.199 4.35904C17.1526 4.53534 17.0884 4.71552 17.0067 4.89955H20.6261C21.14 4.89955 21.5819 5.0836 21.948 5.44962C22.314 5.81566 22.498 6.25758 22.498 6.77145V19.2543C22.498 19.7682 22.314 20.2101 21.948 20.5762C21.5819 20.9422 21.14 21.1263 20.6261 21.1263H2.36997C1.8561 21.1263 1.41418 20.9422 1.04814 20.5762C0.682104 20.2101 0.498047 19.7682 0.498047 19.2543V6.77145C0.498047 6.25758 0.682106 5.81566 1.04815 5.44962C1.41419 5.0836 1.8561 4.89955 2.36997 4.89955ZM9.781 3.72575C9.781 3.37402 9.65912 3.07759 9.41422 2.83215C9.16939 2.58674 8.87331 2.46459 8.52166 2.46459C8.16994 2.46459 7.87351 2.58647 7.62805 2.83135C7.38265 3.07618 7.26052 3.37227 7.26052 3.72394C7.26052 4.07565 7.3824 4.37208 7.62728 4.61752C7.87211 4.86294 8.16819 4.98507 8.51984 4.98507C8.87156 4.98507 9.16799 4.8632 9.41345 4.61832C9.65886 4.37349 9.781 4.07741 9.781 3.72575ZM14.4193 4.98507C14.0787 4.98507 13.7868 4.86336 13.5398 4.61736C13.2934 4.37189 13.1709 4.07551 13.1709 3.72394C13.1709 3.37236 13.2934 3.0763 13.5398 2.83145C13.7867 2.58604 14.0786 2.46459 14.4193 2.46459C14.778 2.46459 15.0778 2.58701 15.3233 2.83224C15.5691 3.0777 15.6913 3.3741 15.6913 3.72575C15.6913 4.07738 15.5691 4.37345 15.3234 4.61829C15.0778 4.86293 14.778 4.98507 14.4193 4.98507ZM9.09226 6.49037H2.36997C2.30422 6.49037 2.24084 6.51694 2.17815 6.57963C2.11543 6.64234 2.08886 6.70572 2.08886 6.77145V11.7182H20.9072V6.77145C20.9072 6.70572 20.8807 6.64234 20.8179 6.57963C20.7553 6.51694 20.6919 6.49037 20.6261 6.49037H13.8553L16.3815 9.99159L15.1144 10.9289L11.4759 5.92934L7.83747 10.9289L6.57042 9.99163L9.09226 6.49037Z" fill="#6ABF40"/>
</svg>
