<svg width="27" height="26" viewBox="0 0 27 26" fill="none" xmlns="http://www.w3.org/2000/svg">
<path d="M3.1001 18.5981C3.1001 19.291 3.37403 19.9554 3.86162 20.4454C4.34921 20.9353 5.01053 21.2105 5.7001 21.2105H21.3001C21.9897 21.2105 22.651 20.9353 23.1386 20.4454C23.6262 19.9554 23.9001 19.291 23.9001 18.5981V11.4139H3.1001V18.5981ZM16.5644 15.0526C16.5644 14.6815 16.7111 14.3255 16.9723 14.063C17.2336 13.8006 17.5878 13.6531 17.9572 13.6531H19.0303C19.3997 13.6531 19.7539 13.8006 20.0152 14.063C20.2764 14.3255 20.4231 14.6815 20.4231 15.0526V15.9857C20.4231 16.3568 20.2764 16.7128 20.0152 16.9753C19.7539 17.2377 19.3997 17.3852 19.0303 17.3852H17.9572C17.5878 17.3852 17.2336 17.2377 16.9723 16.9753C16.7111 16.7128 16.5644 16.3568 16.5644 15.9857V15.0526ZM21.3001 4.78949H5.7001C5.01053 4.78949 4.34921 5.06473 3.86162 5.55466C3.37403 6.04458 3.1001 6.70907 3.1001 7.40193V8.61485H23.9001V7.40193C23.9001 6.70907 23.6262 6.04458 23.1386 5.55466C22.651 5.06473 21.9897 4.78949 21.3001 4.78949Z" fill="#6ABF40"/>
</svg>
