<svg width="25" height="25" viewBox="0 0 25 25" fill="none" xmlns="http://www.w3.org/2000/svg">
<path d="M18.5178 9.95056C18.4207 9.1622 18.1784 8.54319 17.7481 7.99485C17.1893 7.2888 16.4753 6.86607 15.4181 6.61525C14.729 6.44807 14.4507 6.46728 14.2016 6.6949C13.9695 6.90813 13.9241 7.3356 14.1015 7.61252C14.2263 7.81345 14.3702 7.88536 14.7704 7.96392C15.3033 8.06202 15.6717 8.1893 16.0067 8.38084C16.7178 8.79151 17.049 9.43405 17.0845 10.4744C17.1011 10.9628 17.1433 11.1129 17.3139 11.2862C17.6301 11.6028 18.1928 11.5413 18.4315 11.1623C18.5191 11.0195 18.5325 10.9573 18.5417 10.6257C18.5478 10.4203 18.539 10.1147 18.5178 9.95056Z" fill="white"/>
<path d="M21.3032 10.8391C21.1628 8.42378 20.2181 6.48054 18.5273 5.11334C17.5747 4.34502 16.4232 3.81679 15.1611 3.55991C14.6987 3.46797 13.8475 3.39356 13.7014 3.43613C13.5636 3.47561 13.3687 3.62476 13.2819 3.75976C13.1899 3.90608 13.1692 4.23279 13.2476 4.42175C13.3741 4.73766 13.6094 4.84931 14.2685 4.907C15.2845 4.99587 16.3324 5.35276 17.1241 5.88124C18.028 6.48287 18.7466 7.30581 19.2114 8.27281C19.6131 9.10373 19.8601 10.3011 19.8533 11.3733C19.851 11.7611 19.9109 11.9801 20.0668 12.1402C20.3022 12.3864 20.6454 12.4403 20.9482 12.2768C21.2838 12.1003 21.3623 11.7904 21.3032 10.8391Z" fill="white"/>
<path d="M24.3853 20.1408C24.3381 20.0027 24.2278 19.7898 24.1491 19.6675C23.6529 18.9182 20.9871 16.832 19.6561 16.1497C18.8961 15.7593 18.333 15.6292 17.9156 15.7513C17.4667 15.8776 17.2304 16.0866 16.4783 17.0213C16.1751 17.396 15.8641 17.7469 15.7813 17.8021C15.5766 17.9441 15.1749 18.0585 14.8914 18.0585C14.2338 18.0545 13.0407 17.6286 12.1232 17.0686C11.4105 16.6348 10.4969 15.8579 9.79593 15.0888C8.969 14.1858 8.40594 13.3891 7.96093 12.4899C7.38606 11.3345 7.24033 10.6285 7.4805 10.1118C7.53961 9.98172 7.61842 9.84372 7.65375 9.80033C7.68925 9.76092 8.05944 9.45724 8.46887 9.12595C9.27227 8.48707 9.40221 8.34118 9.55176 7.9034C9.74081 7.34732 9.68968 6.77944 9.39822 6.20765C9.17376 5.77378 8.58709 4.8273 8.16178 4.21603C7.59872 3.41155 6.19684 1.6921 5.91718 1.45933C5.41323 1.04924 4.76745 0.97824 4.05467 1.25433C3.30265 1.54612 1.89287 2.68197 1.29037 3.47465C0.746959 4.19242 0.53832 4.70111 0.506787 5.37149C0.479245 5.92366 0.526482 6.15236 0.81788 6.85833C3.09781 12.3952 6.50003 16.8162 11.1742 20.3261C13.6156 22.1599 16.1475 23.556 18.7741 24.5105C20.3058 25.0665 20.9713 25.0941 21.7549 24.6367C22.0857 24.4394 22.9047 23.5994 23.3615 22.9882C24.1175 21.9706 24.3972 21.5014 24.4759 21.1267C24.531 20.8703 24.4877 20.4247 24.3853 20.1408Z" fill="white"/>
<path d="M24.1385 11.394C24.088 10.0278 23.858 8.90712 23.3783 7.65763C22.9048 6.42867 22.4255 5.6266 21.5204 4.54188C20.6647 3.52483 20 2.94406 18.9458 2.2977C17.4751 1.39704 15.6853 0.80099 13.6794 0.550327C12.9954 0.462721 12.8406 0.468981 12.6308 0.609011C12.2241 0.874297 12.2295 1.53587 12.6374 1.79716C12.7725 1.88029 12.8923 1.91063 13.4395 1.98221C14.2795 2.09527 14.8196 2.20185 15.4605 2.37676C17.9736 3.06369 19.9062 4.46798 21.1982 6.55254C22.2795 8.28994 22.7283 10.0276 22.6646 12.2468C22.6424 12.997 22.6586 13.129 22.7732 13.3093C22.9928 13.6453 23.572 13.7118 23.8691 13.433C24.054 13.263 24.0889 13.1355 24.1253 12.4934C24.1427 12.1584 24.1465 11.6639 24.1385 11.394Z" fill="white"/>
</svg>
