<svg width="18" height="18" viewBox="0 0 18 18" fill="none" xmlns="http://www.w3.org/2000/svg">
<path d="M9.5 17.2758L9.25 14.7931H9C6.63333 14.7931 4.625 14.1103 2.975 12.7448C1.325 11.3793 0.5 9.71722 0.5 7.7586C0.5 5.79998 1.325 4.13791 2.975 2.7724C4.625 1.40688 6.63333 0.724121 9 0.724121C10.1833 0.724121 11.2875 0.90688 12.3125 1.2724C13.3375 1.63791 14.2375 2.14136 15.0125 2.78274C15.7875 3.42412 16.3958 4.16895 16.8375 5.01722C17.2792 5.8655 17.5 6.77929 17.5 7.7586C17.5 8.79309 17.2958 9.78619 16.8875 10.7379C16.4792 11.6896 15.9208 12.5724 15.2125 13.3862C14.5042 14.2 13.6625 14.9379 12.6875 15.6C11.7125 16.2621 10.65 16.8207 9.5 17.2758ZM8.975 12.2896C9.25833 12.2896 9.5 12.2069 9.7 12.0414C9.9 11.8758 10 11.6758 10 11.4414C10 11.2069 9.9 11.0069 9.7 10.8414C9.5 10.6758 9.25833 10.5931 8.975 10.5931C8.69167 10.5931 8.45 10.6758 8.25 10.8414C8.05 11.0069 7.95 11.2069 7.95 11.4414C7.95 11.6758 8.05 11.8758 8.25 12.0414C8.45 12.2069 8.69167 12.2896 8.975 12.2896ZM8.25 9.66205H9.75C9.75 9.24826 9.8 8.9586 9.9 8.79309C10 8.62757 10.3167 8.32412 10.85 7.88274C11.15 7.63447 11.4 7.3655 11.6 7.07585C11.8 6.78619 11.9 6.47585 11.9 6.14481C11.9 5.44136 11.6125 4.91378 11.0375 4.56205C10.4625 4.21033 9.78333 4.03447 9 4.03447C8.26667 4.03447 7.65 4.20343 7.15 4.54136C6.65 4.87929 6.3 5.28964 6.1 5.7724L7.5 6.22757C7.58333 5.99309 7.74167 5.76205 7.975 5.53447C8.20833 5.30688 8.55 5.19309 9 5.19309C9.45 5.19309 9.7875 5.29654 10.0125 5.50343C10.2375 5.71033 10.35 5.93791 10.35 6.18619C10.35 6.42067 10.2667 6.63102 10.1 6.81722C9.93333 7.00343 9.73333 7.19309 9.5 7.38619C8.91667 7.79998 8.5625 8.12757 8.4375 8.36895C8.3125 8.61033 8.25 9.04136 8.25 9.66205Z" fill="white"/>
</svg>
