<svg width="29" height="30" viewBox="0 0 29 30" fill="none" xmlns="http://www.w3.org/2000/svg">
<path fill-rule="evenodd" clip-rule="evenodd" d="M23.7416 22.077V13.4718C24.1566 13.0568 24.477 12.5607 24.7028 11.9834C24.928 11.4062 24.9323 10.7657 24.7158 10.0622L23.5793 6.38193C23.4169 5.89484 23.1553 5.50228 22.7945 5.20426C22.4337 4.90695 22.0098 4.7583 21.5227 4.7583H6.47706C5.98997 4.7583 5.56169 4.91164 5.19222 5.21833C4.82204 5.52501 4.56478 5.91288 4.42046 6.38193L3.28392 10.0622C3.06744 10.7657 3.07213 11.4152 3.29799 12.0105C3.52313 12.6058 3.84317 13.0929 4.2581 13.4718V22.077C4.2581 22.6723 4.47025 23.1822 4.89456 23.6065C5.31815 24.0301 5.82761 24.2418 6.42294 24.2418H11.1763V18.2388C11.1763 17.9812 11.3851 17.7724 11.6427 17.7724H16.297C16.5546 17.7724 16.7634 17.9812 16.7634 18.2388V24.2418H21.5768C22.1721 24.2418 22.682 24.0301 23.1063 23.6065C23.5298 23.1822 23.7416 22.6723 23.7416 22.077ZM17.4907 11.8341C17.2381 12.1682 16.8683 12.3352 16.3812 12.3352C16.0204 12.3352 15.7137 12.1956 15.4611 11.9163C15.2086 11.6364 15.0823 11.3069 15.0823 10.9281V6.92314H17.193L17.7883 10.7116C17.8425 11.1265 17.7432 11.5007 17.4907 11.8341ZM12.5256 11.9163C12.2637 12.1956 11.9252 12.3352 11.5103 12.3352C11.0954 12.3352 10.7573 12.1729 10.4961 11.8481C10.2341 11.5234 10.1392 11.1446 10.2114 10.7116L10.8067 6.92314H12.9175V10.9281C12.9175 11.3069 12.7868 11.6364 12.5256 11.9163ZM7.5454 11.9834C7.30222 12.218 7.01827 12.3352 6.69354 12.3352C6.17037 12.3352 5.79585 12.1278 5.56999 11.7128C5.34485 11.2979 5.2864 10.9101 5.39464 10.5492L6.47706 6.92314H8.58777L7.99244 11.0905C7.93832 11.4513 7.78931 11.7489 7.5454 11.9834ZM22.4427 11.7128C22.2082 12.1278 21.8294 12.3352 21.3062 12.3352C20.9815 12.3352 20.6975 12.218 20.4543 11.9834C20.2104 11.7489 20.0614 11.4513 20.0073 11.0905L19.412 6.92314H21.4686L22.6051 10.5492C22.7314 10.9101 22.6773 11.2979 22.4427 11.7128Z" fill="#6ABF40"/>
</svg>
