<svg width="29" height="30" viewBox="0 0 29 30" fill="none" xmlns="http://www.w3.org/2000/svg">
<path d="M6.88304 23.2085C5.97651 23.2085 5.20962 22.8953 4.58237 22.2688C4.04261 21.7284 3.73537 21.0843 3.66066 20.3365C3.64041 20.1338 3.47751 19.9681 3.27378 19.9681L-nan -nanL-nan -nanL3.27378 19.9681C2.39096 19.9681 1.67529 19.2525 1.67529 18.3697V7.6765C1.67529 6.63544 2.51924 5.7915 3.56029 5.7915H17.6413C18.6823 5.7915 19.5263 6.63545 19.5263 7.6765V9.46416C19.5263 9.86456 19.8509 10.1892 20.2513 10.1892H21.6473C22.2425 10.1892 22.8027 10.4702 23.1584 10.9474L26.0377 14.8087C26.2244 15.0591 26.3253 15.3631 26.3253 15.6755V18.5181C26.3253 19.319 25.6761 19.9681 24.8753 19.9681H24.6772C24.4369 19.9681 24.2455 20.1637 24.2166 20.4022C24.1294 21.1221 23.8197 21.7443 23.2874 22.2688C22.6509 22.8953 21.8794 23.2085 20.9729 23.2085C20.0856 23.2085 19.3238 22.8953 18.6873 22.2688C18.155 21.7443 17.8453 21.1221 17.7581 20.4022C17.7292 20.1637 17.5378 19.9681 17.2975 19.9681H10.5584C10.3182 19.9681 10.1266 20.1637 10.0982 20.4022C10.0124 21.1221 9.7076 21.7443 9.18371 22.2688C8.55646 22.8953 7.78957 23.2085 6.88304 23.2085ZM6.88304 21.4726C7.30737 21.4726 7.6642 21.3279 7.95352 21.0386C8.24284 20.7493 8.3875 20.3925 8.3875 19.9681C8.3875 19.5438 8.24284 19.187 7.95352 18.8977C7.6642 18.6083 7.30737 18.4637 6.88304 18.4637C6.4587 18.4637 6.10188 18.6083 5.81256 18.8977C5.52324 19.187 5.37858 19.5438 5.37858 19.9681C5.37858 20.3925 5.52324 20.7493 5.81256 21.0386C6.10188 21.3279 6.4587 21.4726 6.88304 21.4726ZM21.0018 21.4726C21.4262 21.4726 21.783 21.3279 22.0723 21.0386C22.3616 20.7493 22.5063 20.3925 22.5063 19.9681C22.5063 19.5438 22.3616 19.187 22.0723 18.8977C21.783 18.6083 21.4262 18.4637 21.0018 18.4637C20.5775 18.4637 20.216 18.6083 19.9175 18.8977C19.6181 19.187 19.4684 19.5438 19.4684 19.9681C19.4684 20.3925 19.6181 20.7493 19.9175 21.0386C20.216 21.3279 20.5775 21.4726 21.0018 21.4726ZM19.5263 15.1927C19.5263 15.5931 19.8509 15.9177 20.2513 15.9177H23.2509C23.8491 15.9177 24.1899 15.2341 23.8299 14.7563L21.9137 12.2137C21.7767 12.032 21.5623 11.9251 21.3347 11.9251H20.2513C19.8509 11.9251 19.5263 12.2497 19.5263 12.6501V15.1927Z" fill="#6ABF40"/>
</svg>
