<svg width="25" height="24" viewBox="0 0 25 24" fill="none" xmlns="http://www.w3.org/2000/svg">
<g clip-path="url(#clip0_13892_39538)">
<path fill-rule="evenodd" clip-rule="evenodd" d="M4.50769 2.08933C4.85993 2.45584 5.00417 2.92603 5.07684 3.31486L5.08333 3.3544L5.21325 4.27463C7.59988 4.0464 9.9802 3.81679 12.3606 3.58717L13.5977 3.46783C16.1688 3.21989 18.7413 2.9722 21.3218 2.72666L21.3368 2.72496L21.3403 2.72455C21.3572 2.72255 21.3987 2.71766 21.4454 2.71492C21.5755 2.70592 21.6963 2.69692 21.8105 2.68841L21.8523 2.6853C22.1712 2.6615 22.4797 2.63848 22.7265 2.64633C22.95 2.65345 23.3964 2.68471 23.7385 3.02522C24.0943 3.37956 24.1111 3.83766 24.1077 4.06855C24.104 4.31898 24.0618 4.62777 24.0194 4.93803L24.0161 4.96195L24.0153 4.96755L24.0117 4.99589L24.0115 4.99748L24.0115 4.99787C24.0101 5.00959 24.0079 5.02731 24.0054 5.04614L24.0047 5.05109C23.9124 5.79302 23.8184 6.53459 23.7245 7.27495C23.535 8.76895 23.3462 10.258 23.1722 11.7483C23.1645 11.8142 23.1572 11.8811 23.1498 11.9478L23.1498 11.9481L23.1498 11.9481C23.1265 12.1592 23.1034 12.3677 23.0735 12.532C23.0332 12.7529 22.9522 13.0895 22.6885 13.3715C22.3793 13.7022 21.9742 13.7927 21.7099 13.8382C21.5015 13.874 21.2301 13.9016 20.9259 13.9325L20.9259 13.9325L20.9254 13.9326C20.8302 13.9422 20.7317 13.9523 20.6309 13.9629L20.615 13.9645L20.5716 13.9683C16.1801 14.435 11.7884 14.9016 7.39675 15.3668L7.38539 15.3679C6.83895 15.4188 6.31058 15.3388 5.8416 15.079C5.37263 14.8191 5.03909 14.4214 4.81021 13.9668L4.72287 13.6875C4.33308 10.9179 3.94222 8.14799 3.5512 5.37817L3.30404 3.62753C3.28256 3.5176 3.25901 3.44182 3.23785 3.39151C3.23155 3.37652 3.22596 3.36499 3.22138 3.35637C3.20381 3.35435 3.17627 3.35279 3.13652 3.35469L3.11406 3.35548C2.90654 3.36019 2.76915 3.36259 2.66333 3.36443C2.59742 3.36558 2.54611 3.36648 2.49732 3.36757L2.49424 3.36764L1.81009 3.38123C1.31313 3.3909 0.90242 2.99587 0.892752 2.4989C0.883083 2.00194 1.27811 1.59124 1.77508 1.58157L2.45793 1.568C2.51137 1.5668 2.56671 1.56584 2.63041 1.56473L2.63042 1.56473L2.63198 1.5647L2.632 1.5647C2.73505 1.56291 2.86603 1.56063 3.06319 1.55617C3.60633 1.53293 4.12029 1.68623 4.50769 2.08933ZM8.11777 19.3138C8.11777 18.5774 8.71405 17.982 9.44812 17.982C10.1841 17.982 10.78 18.5778 10.78 19.3138C10.78 20.0487 10.1837 20.6457 9.44812 20.6457C8.71445 20.6457 8.11777 20.0491 8.11777 19.3138ZM9.44812 16.182C7.71914 16.182 6.31777 17.5841 6.31777 19.3138C6.31777 21.0416 7.71874 22.4457 9.44812 22.4457C11.1786 22.4457 12.58 21.042 12.58 19.3138C12.58 17.5837 11.1782 16.182 9.44812 16.182ZM16.5858 19.3138C16.5858 18.5778 17.1817 17.982 17.9177 17.982C18.6537 17.982 19.2495 18.5778 19.2495 19.3138C19.2495 20.0487 18.6533 20.6457 17.9177 20.6457C17.1821 20.6457 16.5858 20.0487 16.5858 19.3138ZM17.9177 16.182C16.1876 16.182 14.7858 17.5837 14.7858 19.3138C14.7858 21.042 16.1872 22.4457 17.9177 22.4457C19.6482 22.4457 21.0495 21.042 21.0495 19.3138C21.0495 17.5837 19.6478 16.182 17.9177 16.182Z" fill="#6ABF40"/>
</g>
<defs>
<clipPath id="clip0_13892_39538">
<rect width="24" height="24" fill="white" transform="translate(0.5)"/>
</clipPath>
</defs>
</svg>
