<svg width="27" height="26" viewBox="0 0 27 26" fill="none" xmlns="http://www.w3.org/2000/svg">
<path fill-rule="evenodd" clip-rule="evenodd" d="M5.6999 6.17498C5.27965 6.17498 4.7249 6.60985 4.7249 7.42855L4.7249 9.74061L22.2749 9.74061V7.42855C22.2749 6.60985 21.7202 6.17498 21.2999 6.17498L5.6999 6.17498ZM24.2249 7.42855C24.2249 5.78563 23.0336 4.22498 21.2999 4.22498L5.6999 4.22498C3.96625 4.22498 2.7749 5.78563 2.7749 7.42855L2.7749 18.5714C2.7749 20.2143 3.96625 21.775 5.6999 21.775L21.2999 21.775C23.0336 21.775 24.2249 20.2143 24.2249 18.5714L24.2249 7.42855ZM16.4205 15.7082C15.882 15.7082 15.4455 16.1447 15.4455 16.6832C15.4455 17.2217 15.882 17.6582 16.4205 17.6582H16.4291C16.9676 17.6582 17.4041 17.2217 17.4041 16.6832C17.4041 16.1447 16.9676 15.7082 16.4291 15.7082H16.4205ZM18.208 16.6832C18.208 16.1447 18.6445 15.7082 19.183 15.7082H19.1916C19.7301 15.7082 20.1666 16.1447 20.1666 16.6832C20.1666 17.2217 19.7301 17.6582 19.1916 17.6582H19.183C18.6445 17.6582 18.208 17.2217 18.208 16.6832Z" fill="#6ABF40"/>
</svg>
